<svg width="595" height="528" viewBox="0 0 595 528" fill="none" xmlns="http://www.w3.org/2000/svg">
<g clip-path="url(#clip0_15174_50)">
<path d="M594.202 527.411H575.645V508.575H594.202V527.411Z" fill="#ECD979"/>
<path d="M575.644 527.411H557.087V508.575H575.644V527.411Z" fill="#ECD979"/>
<path d="M501.414 527.411H482.857V508.575H501.414V527.411Z" fill="#ECD979"/>
<path d="M482.857 527.411H464.3V508.575H482.857V527.411Z" fill="#ECD979"/>
<path d="M464.299 527.411H445.742V508.575H464.299V527.411Z" fill="#ECD979"/>
<path d="M352.954 527.411H334.397V508.575H352.954V527.411Z" fill="#ECD979"/>
<path d="M241.614 527.411H223.057V508.575H241.614V527.411Z" fill="#ECD979"/>
<path d="M130.269 527.411H111.711V508.575H130.269V527.411Z" fill="#ECD979"/>
<path d="M111.712 527.411H93.1541V508.575H111.712V527.411Z" fill="#ECD979"/>
<path d="M93.1539 527.411H74.5964V508.575H93.1539V527.411Z" fill="#ECD979"/>
<path d="M18.924 527.411H0.366455V508.575H18.924V527.411Z" fill="#ECD979"/>
<path d="M594.202 508.575H575.645V489.739H594.202V508.575Z" fill="#ECD979"/>
<path d="M519.972 508.575H501.415V489.739H519.972V508.575Z" fill="#ECD979"/>
<path d="M501.414 508.575H482.857V489.739H501.414V508.575Z" fill="#ECD979"/>
<path d="M482.857 508.575H464.3V489.739H482.857V508.575Z" fill="#ECD979"/>
<path d="M352.954 508.575H334.397V489.739H352.954V508.575Z" fill="#ECD979"/>
<path d="M334.397 508.575H315.839V489.739H334.397V508.575Z" fill="#ECD979"/>
<path d="M260.172 508.575H241.614V489.739H260.172V508.575Z" fill="#ECD979"/>
<path d="M241.614 508.575H223.057V489.739H241.614V508.575Z" fill="#ECD979"/>
<path d="M111.712 508.575H93.1541V489.739H111.712V508.575Z" fill="#ECD979"/>
<path d="M93.1539 508.575H74.5964V489.739H93.1539V508.575Z" fill="#ECD979"/>
<path d="M74.5966 508.575H56.0391V489.739H74.5966V508.575Z" fill="#ECD979"/>
<path d="M538.529 489.739H519.972V470.903H538.529V489.739Z" fill="#ECD979"/>
<path d="M519.972 489.739H501.415V470.903H519.972V489.739Z" fill="#ECD979"/>
<path d="M501.414 489.739H482.857V470.903H501.414V489.739Z" fill="#ECD979"/>
<path d="M352.954 489.739H334.397V470.903H352.954V489.739Z" fill="#ECD979"/>
<path d="M334.397 489.739H315.839V470.903H334.397V489.739Z" fill="#ECD979"/>
<path d="M315.84 489.739H297.282V470.903H315.84V489.739Z" fill="#ECD979"/>
<path d="M278.729 489.739H260.172V470.903H278.729V489.739Z" fill="#ECD979"/>
<path d="M260.172 489.739H241.614V470.903H260.172V489.739Z" fill="#ECD979"/>
<path d="M241.614 489.739H223.057V470.903H241.614V489.739Z" fill="#ECD979"/>
<path d="M93.1539 489.739H74.5964V470.903H93.1539V489.739Z" fill="#ECD979"/>
<path d="M74.5966 489.739H56.0391V470.903H74.5966V489.739Z" fill="#ECD979"/>
<path d="M56.0389 489.739H37.4814V470.903H56.0389V489.739Z" fill="#ECD979"/>
<path d="M557.087 470.903H538.529V452.067H557.087V470.903Z" fill="#ECD979"/>
<path d="M538.529 470.903H519.972V452.067H538.529V470.903Z" fill="#ECD979"/>
<path d="M519.972 470.903H501.415V452.067H519.972V470.903Z" fill="#ECD979"/>
<path d="M427.184 470.903H408.627V452.067H427.184V470.903Z" fill="#ECD979"/>
<path d="M408.627 470.903H390.069V452.067H408.627V470.903Z" fill="#ECD979"/>
<path d="M390.069 470.903H371.512V452.067H390.069V470.903Z" fill="#ECD979"/>
<path d="M334.397 470.903H315.839V452.067H334.397V470.903Z" fill="#ECD979"/>
<path d="M315.84 470.903H297.282V452.067H315.84V470.903Z" fill="#ECD979"/>
<path d="M278.729 470.903H260.172V452.067H278.729V470.903Z" fill="#ECD979"/>
<path d="M260.172 470.903H241.614V452.067H260.172V470.903Z" fill="#ECD979"/>
<path d="M204.499 470.903H185.941V452.067H204.499V470.903Z" fill="#ECD979"/>
<path d="M185.942 470.903H167.384V452.067H185.942V470.903Z" fill="#ECD979"/>
<path d="M167.384 470.903H148.826V452.067H167.384V470.903Z" fill="#ECD979"/>
<path d="M74.5966 470.903H56.0391V452.067H74.5966V470.903Z" fill="#ECD979"/>
<path d="M56.0389 470.903H37.4814V452.067H56.0389V470.903Z" fill="#ECD979"/>
<path d="M37.4816 470.903H18.9241V452.067H37.4816V470.903Z" fill="#ECD979"/>
<path d="M575.644 452.067H557.087V433.231H575.644V452.067Z" fill="#ECD979"/>
<path d="M557.087 452.067H538.529V433.231H557.087V452.067Z" fill="#ECD979"/>
<path d="M538.529 452.067H519.972V433.231H538.529V452.067Z" fill="#ECD979"/>
<path d="M408.627 452.067H390.069V433.231H408.627V452.067Z" fill="#ECD979"/>
<path d="M390.069 452.067H371.512V433.231H390.069V452.067Z" fill="#ECD979"/>
<path d="M371.512 452.067H352.955V433.231H371.512V452.067Z" fill="#ECD979"/>
<path d="M315.84 452.067H297.282V433.231H315.84V452.067Z" fill="#ECD979"/>
<path d="M278.729 452.067H260.172V433.231H278.729V452.067Z" fill="#ECD979"/>
<path d="M223.057 452.067H204.499V433.231H223.057V452.067Z" fill="#ECD979"/>
<path d="M204.499 452.067H185.941V433.231H204.499V452.067Z" fill="#ECD979"/>
<path d="M185.942 452.067H167.384V433.231H185.942V452.067Z" fill="#ECD979"/>
<path d="M56.0389 452.067H37.4814V433.231H56.0389V452.067Z" fill="#ECD979"/>
<path d="M37.4816 452.067H18.9241V433.231H37.4816V452.067Z" fill="#ECD979"/>
<path d="M18.924 452.067H0.366455V433.231H18.924V452.067Z" fill="#ECD979"/>
<path d="M575.644 433.231H557.087V414.394H575.644V433.231Z" fill="#ECD979"/>
<path d="M557.087 433.231H538.529V414.394H557.087V433.231Z" fill="#ECD979"/>
<path d="M390.069 433.23H371.512V414.394H390.069V433.23Z" fill="#ECD979"/>
<path d="M371.512 433.231H352.955V414.394H371.512V433.231Z" fill="#ECD979"/>
<path d="M352.954 433.231H334.397V414.394H352.954V433.231Z" fill="#ECD979"/>
<path d="M241.614 433.231H223.057V414.394H241.614V433.231Z" fill="#ECD979"/>
<path d="M223.057 433.231H204.499V414.394H223.057V433.231Z" fill="#ECD979"/>
<path d="M204.499 433.231H185.941V414.394H204.499V433.231Z" fill="#ECD979"/>
<path d="M37.4816 433.231H18.9241V414.394H37.4816V433.231Z" fill="#ECD979"/>
<path d="M18.924 433.231H0.366455V414.394H18.924V433.231Z" fill="#ECD979"/>
<path d="M575.644 414.394H557.087V395.558H575.644V414.394Z" fill="#ECD979"/>
<path d="M482.857 414.394H464.3V395.558H482.857V414.394Z" fill="#ECD979"/>
<path d="M315.84 414.395H297.282V395.558H315.84V414.395Z" fill="#ECD979"/>
<path d="M278.729 414.394H260.172V395.558H278.729V414.394Z" fill="#ECD979"/>
<path d="M111.712 414.394H93.1541V395.558H111.712V414.394Z" fill="#ECD979"/>
<path d="M18.924 414.394H0.366455V395.558H18.924V414.394Z" fill="#ECD979"/>
<path d="M482.857 395.558H464.3V376.722H482.857V395.558Z" fill="#ECD979"/>
<path d="M464.299 395.558H445.742V376.722H464.299V395.558Z" fill="#ECD979"/>
<path d="M334.397 395.558H315.839V376.722H334.397V395.558Z" fill="#ECD979"/>
<path d="M315.84 395.558H297.282V376.722H315.84V395.558Z" fill="#ECD979"/>
<path d="M278.729 395.558H260.172V376.722H278.729V395.558Z" fill="#ECD979"/>
<path d="M260.172 395.558H241.614V376.722H260.172V395.558Z" fill="#ECD979"/>
<path d="M130.269 395.558H111.711V376.722H130.269V395.558Z" fill="#ECD979"/>
<path d="M111.712 395.558H93.1541V376.722H111.712V395.558Z" fill="#ECD979"/>
<path d="M482.857 376.722H464.3V357.886H482.857V376.722Z" fill="#ECD979"/>
<path d="M464.299 376.722H445.742V357.886H464.299V376.722Z" fill="#ECD979"/>
<path d="M445.742 376.722H427.185V357.886H445.742V376.722Z" fill="#ECD979"/>
<path d="M352.954 376.722H334.397V357.886H352.954V376.722Z" fill="#ECD979"/>
<path d="M334.397 376.722H315.839V357.886H334.397V376.722Z" fill="#ECD979"/>
<path d="M260.172 376.722H241.614V357.886H260.172V376.722Z" fill="#ECD979"/>
<path d="M241.614 376.722H223.057V357.886H241.614V376.722Z" fill="#ECD979"/>
<path d="M148.827 376.722H130.269V357.886H148.827V376.722Z" fill="#ECD979"/>
<path d="M130.269 376.722H111.711V357.886H130.269V376.722Z" fill="#ECD979"/>
<path d="M111.712 376.722H93.1541V357.886H111.712V376.722Z" fill="#ECD979"/>
<path d="M464.299 357.886H445.742V339.05H464.299V357.886Z" fill="#ECD979"/>
<path d="M445.742 357.886H427.185V339.05H445.742V357.886Z" fill="#ECD979"/>
<path d="M371.512 357.886H352.955V339.05H371.512V357.886Z" fill="#ECD979"/>
<path d="M352.954 357.886H334.397V339.05H352.954V357.886Z" fill="#ECD979"/>
<path d="M241.614 357.886H223.057V339.05H241.614V357.886Z" fill="#ECD979"/>
<path d="M223.057 357.886H204.499V339.05H223.057V357.886Z" fill="#ECD979"/>
<path d="M148.827 357.886H130.269V339.05H148.827V357.886Z" fill="#ECD979"/>
<path d="M130.269 357.886H111.711V339.05H130.269V357.886Z" fill="#ECD979"/>
<path d="M538.529 339.05H519.972V320.214H538.529V339.05Z" fill="#ECD979"/>
<path d="M519.972 339.05H501.415V320.214H519.972V339.05Z" fill="#ECD979"/>
<path d="M501.414 339.05H482.857V320.214H501.414V339.05Z" fill="#ECD979"/>
<path d="M445.742 339.05H427.185V320.214H445.742V339.05Z" fill="#ECD979"/>
<path d="M390.069 339.05H371.512V320.214H390.069V339.05Z" fill="#ECD979"/>
<path d="M371.512 339.05H352.955V320.214H371.512V339.05Z" fill="#ECD979"/>
<path d="M223.057 339.05H204.499V320.214H223.057V339.05Z" fill="#ECD979"/>
<path d="M204.499 339.05H185.941V320.214H204.499V339.05Z" fill="#ECD979"/>
<path d="M148.827 339.05H130.269V320.214H148.827V339.05Z" fill="#ECD979"/>
<path d="M93.1539 339.05H74.5964V320.214H93.1539V339.05Z" fill="#ECD979"/>
<path d="M74.5966 339.05H56.0391V320.214H74.5966V339.05Z" fill="#ECD979"/>
<path d="M56.0389 339.05H37.4814V320.214H56.0389V339.05Z" fill="#ECD979"/>
<path d="M594.202 320.214H575.645V301.378H594.202V320.214Z" fill="#ECD979"/>
<path d="M519.972 320.214H501.415V301.378H519.972V320.214Z" fill="#ECD979"/>
<path d="M501.414 320.214H482.857V301.378H501.414V320.214Z" fill="#ECD979"/>
<path d="M482.857 320.214H464.3V301.378H482.857V320.214Z" fill="#ECD979"/>
<path d="M408.627 320.214H390.069V301.378H408.627V320.214Z" fill="#ECD979"/>
<path d="M390.069 320.214H371.512V301.378H390.069V320.214Z" fill="#ECD979"/>
<path d="M204.499 320.214H185.941V301.378H204.499V320.214Z" fill="#ECD979"/>
<path d="M185.942 320.214H167.384V301.378H185.942V320.214Z" fill="#ECD979"/>
<path d="M111.712 320.214H93.1541V301.378H111.712V320.214Z" fill="#ECD979"/>
<path d="M93.1539 320.214H74.5964V301.378H93.1539V320.214Z" fill="#ECD979"/>
<path d="M74.5966 320.214H56.0391V301.378H74.5966V320.214Z" fill="#ECD979"/>
<path d="M594.202 301.378H575.645V282.542H594.202V301.378Z" fill="#ECD979"/>
<path d="M575.644 301.378H557.087V282.542H575.644V301.378Z" fill="#ECD979"/>
<path d="M501.414 301.378H482.857V282.542H501.414V301.378Z" fill="#ECD979"/>
<path d="M482.857 301.378H464.3V282.542H482.857V301.378Z" fill="#ECD979"/>
<path d="M464.299 301.378H445.742V282.542H464.299V301.378Z" fill="#ECD979"/>
<path d="M427.184 301.378H408.627V282.542H427.184V301.378Z" fill="#ECD979"/>
<path d="M408.627 301.378H390.069V282.542H408.627V301.378Z" fill="#ECD979"/>
<path d="M297.287 301.378H278.729V282.542H297.287V301.378Z" fill="#ECD979"/>
<path d="M185.942 301.378H167.384V282.542H185.942V301.378Z" fill="#ECD979"/>
<path d="M167.384 301.378H148.826V282.542H167.384V301.378Z" fill="#ECD979"/>
<path d="M130.269 301.378H111.711V282.542H130.269V301.378Z" fill="#ECD979"/>
<path d="M111.712 301.378H93.1541V282.542H111.712V301.378Z" fill="#ECD979"/>
<path d="M93.1539 301.378H74.5964V282.542H93.1539V301.378Z" fill="#ECD979"/>
<path d="M18.5575 282.542H0V263.706H18.5575V282.542Z" fill="#ECD979"/>
<path d="M37.4816 282.542H18.9241V263.706H37.4816V282.542Z" fill="#ECD979"/>
<path d="M18.5575 301.378H0V282.542H18.5575V301.378Z" fill="#ECD979"/>
<path d="M18.5575 263.706H0V244.869H18.5575V263.706Z" fill="#ECD979"/>
<path d="M594.202 282.542H575.645V263.706H594.202V282.542Z" fill="#ECD979"/>
<path d="M575.644 282.542H557.087V263.706H575.644V282.542Z" fill="#ECD979"/>
<path d="M557.087 282.542H538.529V263.706H557.087V282.542Z" fill="#ECD979"/>
<path d="M315.84 282.542H297.282V263.705H315.84V282.542Z" fill="#ECD979"/>
<path d="M297.287 282.542H278.729V263.706H297.287V282.542Z" fill="#ECD979"/>
<path d="M278.729 282.542H260.172V263.706H278.729V282.542Z" fill="#ECD979"/>
<path d="M594.202 263.706H575.645V244.869H594.202V263.706Z" fill="#ECD979"/>
<path d="M575.644 263.706H557.087V244.869H575.644V263.706Z" fill="#ECD979"/>
<path d="M501.414 263.706H482.857V244.869H501.414V263.706Z" fill="#ECD979"/>
<path d="M482.857 263.706H464.3V244.869H482.857V263.706Z" fill="#ECD979"/>
<path d="M464.299 263.706H445.742V244.869H464.299V263.706Z" fill="#ECD979"/>
<path d="M427.184 263.706H408.627V244.869H427.184V263.706Z" fill="#ECD979"/>
<path d="M408.627 263.706H390.069V244.869H408.627V263.706Z" fill="#ECD979"/>
<path d="M297.287 263.706H278.729V244.869H297.287V263.706Z" fill="#ECD979"/>
<path d="M185.942 263.706H167.384V244.869H185.942V263.706Z" fill="#ECD979"/>
<path d="M167.384 263.706H148.826V244.869H167.384V263.706Z" fill="#ECD979"/>
<path d="M130.269 263.706H111.711V244.869H130.269V263.706Z" fill="#ECD979"/>
<path d="M111.712 263.706H93.1541V244.869H111.712V263.706Z" fill="#ECD979"/>
<path d="M93.1539 263.706H74.5964V244.869H93.1539V263.706Z" fill="#ECD979"/>
<path d="M594.202 244.869H575.645V226.033H594.202V244.869Z" fill="#ECD979"/>
<path d="M519.972 244.869H501.415V226.033H519.972V244.869Z" fill="#ECD979"/>
<path d="M501.414 244.869H482.857V226.033H501.414V244.869Z" fill="#ECD979"/>
<path d="M482.857 244.869H464.3V226.033H482.857V244.869Z" fill="#ECD979"/>
<path d="M408.627 244.869H390.069V226.033H408.627V244.869Z" fill="#ECD979"/>
<path d="M390.069 244.87H371.512V226.034H390.069V244.87Z" fill="#ECD979"/>
<path d="M204.499 244.869H185.941V226.033H204.499V244.869Z" fill="#ECD979"/>
<path d="M185.942 244.869H167.384V226.033H185.942V244.869Z" fill="#ECD979"/>
<path d="M111.712 244.869H93.1541V226.033H111.712V244.869Z" fill="#ECD979"/>
<path d="M93.1539 244.869H74.5964V226.033H93.1539V244.869Z" fill="#ECD979"/>
<path d="M74.5966 244.869H56.0391V226.033H74.5966V244.869Z" fill="#ECD979"/>
<path d="M538.529 226.033H519.972V207.197H538.529V226.033Z" fill="#ECD979"/>
<path d="M519.972 226.033H501.415V207.197H519.972V226.033Z" fill="#ECD979"/>
<path d="M501.414 226.033H482.857V207.197H501.414V226.033Z" fill="#ECD979"/>
<path d="M445.742 226.033H427.185V207.197H445.742V226.033Z" fill="#ECD979"/>
<path d="M390.069 226.033H371.512V207.197H390.069V226.033Z" fill="#ECD979"/>
<path d="M371.512 226.033H352.955V207.197H371.512V226.033Z" fill="#ECD979"/>
<path d="M223.057 226.033H204.499V207.197H223.057V226.033Z" fill="#ECD979"/>
<path d="M204.499 226.033H185.941V207.197H204.499V226.033Z" fill="#ECD979"/>
<path d="M148.827 226.033H130.269V207.197H148.827V226.033Z" fill="#ECD979"/>
<path d="M93.1539 226.033H74.5964V207.197H93.1539V226.033Z" fill="#ECD979"/>
<path d="M74.5966 226.033H56.0391V207.197H74.5966V226.033Z" fill="#ECD979"/>
<path d="M56.0389 226.033H37.4814V207.197H56.0389V226.033Z" fill="#ECD979"/>
<path d="M464.299 207.197H445.742V188.361H464.299V207.197Z" fill="#ECD979"/>
<path d="M445.742 207.197H427.185V188.361H445.742V207.197Z" fill="#ECD979"/>
<path d="M371.512 207.197H352.955V188.361H371.512V207.197Z" fill="#ECD979"/>
<path d="M352.954 207.197H334.397V188.361H352.954V207.197Z" fill="#ECD979"/>
<path d="M241.614 207.197H223.057V188.361H241.614V207.197Z" fill="#ECD979"/>
<path d="M223.057 207.197H204.499V188.361H223.057V207.197Z" fill="#ECD979"/>
<path d="M148.827 207.197H130.269V188.361H148.827V207.197Z" fill="#ECD979"/>
<path d="M130.269 207.197H111.711V188.361H130.269V207.197Z" fill="#ECD979"/>
<path d="M482.857 188.361H464.3V169.525H482.857V188.361Z" fill="#ECD979"/>
<path d="M464.299 188.361H445.742V169.525H464.299V188.361Z" fill="#ECD979"/>
<path d="M445.742 188.361H427.185V169.525H445.742V188.361Z" fill="#ECD979"/>
<path d="M352.954 188.361H334.397V169.525H352.954V188.361Z" fill="#ECD979"/>
<path d="M334.397 188.361H315.839V169.525H334.397V188.361Z" fill="#ECD979"/>
<path d="M260.172 188.361H241.614V169.525H260.172V188.361Z" fill="#ECD979"/>
<path d="M241.614 188.361H223.057V169.525H241.614V188.361Z" fill="#ECD979"/>
<path d="M148.827 188.361H130.269V169.525H148.827V188.361Z" fill="#ECD979"/>
<path d="M130.269 188.361H111.711V169.525H130.269V188.361Z" fill="#ECD979"/>
<path d="M111.712 188.361H93.1541V169.525H111.712V188.361Z" fill="#ECD979"/>
<path d="M482.857 169.525H464.3V150.689H482.857V169.525Z" fill="#ECD979"/>
<path d="M464.299 169.525H445.742V150.689H464.299V169.525Z" fill="#ECD979"/>
<path d="M334.397 169.525H315.839V150.689H334.397V169.525Z" fill="#ECD979"/>
<path d="M315.84 169.525H297.282V150.689H315.84V169.525Z" fill="#ECD979"/>
<path d="M278.729 169.525H260.172V150.689H278.729V169.525Z" fill="#ECD979"/>
<path d="M260.172 169.525H241.614V150.689H260.172V169.525Z" fill="#ECD979"/>
<path d="M130.269 169.525H111.711V150.689H130.269V169.525Z" fill="#ECD979"/>
<path d="M111.712 169.525H93.1541V150.689H111.712V169.525Z" fill="#ECD979"/>
<path d="M482.857 150.689H464.3V131.853H482.857V150.689Z" fill="#ECD979"/>
<path d="M315.84 150.689H297.282V131.853H315.84V150.689Z" fill="#ECD979"/>
<path d="M278.729 150.689H260.172V131.853H278.729V150.689Z" fill="#ECD979"/>
<path d="M111.712 150.689H93.1541V131.853H111.712V150.689Z" fill="#ECD979"/>
<path d="M575.644 131.853H557.087V113.016H575.644V131.853Z" fill="#ECD979"/>
<path d="M18.924 131.853H0.366455V113.016H18.924V131.853Z" fill="#ECD979"/>
<path d="M575.644 113.016H557.087V94.1804H575.644V113.016Z" fill="#ECD979"/>
<path d="M557.087 113.016H538.529V94.1804H557.087V113.016Z" fill="#ECD979"/>
<path d="M390.069 113.017H371.512V94.1805H390.069V113.017Z" fill="#ECD979"/>
<path d="M371.512 113.016H352.955V94.1804H371.512V113.016Z" fill="#ECD979"/>
<path d="M352.954 113.016H334.397V94.1804H352.954V113.016Z" fill="#ECD979"/>
<path d="M241.614 113.016H223.057V94.1804H241.614V113.016Z" fill="#ECD979"/>
<path d="M223.057 113.016H204.499V94.1804H223.057V113.016Z" fill="#ECD979"/>
<path d="M204.499 113.016H185.941V94.1804H204.499V113.016Z" fill="#ECD979"/>
<path d="M37.4816 113.016H18.9241V94.1804H37.4816V113.016Z" fill="#ECD979"/>
<path d="M18.924 113.016H0.366455V94.1804H18.924V113.016Z" fill="#ECD979"/>
<path d="M575.644 94.1804H557.087V75.3443H575.644V94.1804Z" fill="#ECD979"/>
<path d="M557.087 94.1804H538.529V75.3443H557.087V94.1804Z" fill="#ECD979"/>
<path d="M538.529 94.1804H519.972V75.3443H538.529V94.1804Z" fill="#ECD979"/>
<path d="M408.627 94.1804H390.069V75.3443H408.627V94.1804Z" fill="#ECD979"/>
<path d="M390.069 94.1802H371.512V75.3441H390.069V94.1802Z" fill="#ECD979"/>
<path d="M371.512 94.1804H352.955V75.3443H371.512V94.1804Z" fill="#ECD979"/>
<path d="M315.84 94.1802H297.282V75.3441H315.84V94.1802Z" fill="#ECD979"/>
<path d="M278.729 94.1804H260.172V75.3443H278.729V94.1804Z" fill="#ECD979"/>
<path d="M223.057 94.1804H204.499V75.3443H223.057V94.1804Z" fill="#ECD979"/>
<path d="M204.499 94.1804H185.941V75.3443H204.499V94.1804Z" fill="#ECD979"/>
<path d="M185.942 94.1804H167.384V75.3443H185.942V94.1804Z" fill="#ECD979"/>
<path d="M56.0389 94.1804H37.4814V75.3443H56.0389V94.1804Z" fill="#ECD979"/>
<path d="M37.4816 94.1804H18.9241V75.3443H37.4816V94.1804Z" fill="#ECD979"/>
<path d="M18.924 94.1804H0.366455V75.3443H18.924V94.1804Z" fill="#ECD979"/>
<path d="M557.087 75.3442H538.529V56.5081H557.087V75.3442Z" fill="#ECD979"/>
<path d="M538.529 75.3442H519.972V56.5081H538.529V75.3442Z" fill="#ECD979"/>
<path d="M519.972 75.3442H501.415V56.5081H519.972V75.3442Z" fill="#ECD979"/>
<path d="M427.184 75.3442H408.627V56.5081H427.184V75.3442Z" fill="#ECD979"/>
<path d="M408.627 75.3442H390.069V56.5081H408.627V75.3442Z" fill="#ECD979"/>
<path d="M390.069 75.3442H371.512V56.5081H390.069V75.3442Z" fill="#ECD979"/>
<path d="M334.397 75.3442H315.839V56.5081H334.397V75.3442Z" fill="#ECD979"/>
<path d="M315.84 75.3442H297.282V56.5081H315.84V75.3442Z" fill="#ECD979"/>
<path d="M278.729 75.3442H260.172V56.5081H278.729V75.3442Z" fill="#ECD979"/>
<path d="M260.172 75.3442H241.614V56.5081H260.172V75.3442Z" fill="#ECD979"/>
<path d="M204.499 75.3442H185.941V56.5081H204.499V75.3442Z" fill="#ECD979"/>
<path d="M185.942 75.3442H167.384V56.5081H185.942V75.3442Z" fill="#ECD979"/>
<path d="M167.384 75.3442H148.826V56.5081H167.384V75.3442Z" fill="#ECD979"/>
<path d="M74.5966 75.3442H56.0391V56.5081H74.5966V75.3442Z" fill="#ECD979"/>
<path d="M56.0389 75.3442H37.4814V56.5081H56.0389V75.3442Z" fill="#ECD979"/>
<path d="M37.4816 75.3442H18.9241V56.5081H37.4816V75.3442Z" fill="#ECD979"/>
<path d="M538.529 56.5081H519.972V37.6719H538.529V56.5081Z" fill="#ECD979"/>
<path d="M519.972 56.5081H501.415V37.6719H519.972V56.5081Z" fill="#ECD979"/>
<path d="M501.414 56.5081H482.857V37.6719H501.414V56.5081Z" fill="#ECD979"/>
<path d="M352.954 56.5081H334.397V37.6719H352.954V56.5081Z" fill="#ECD979"/>
<path d="M334.397 56.5081H315.839V37.6719H334.397V56.5081Z" fill="#ECD979"/>
<path d="M315.84 56.5083H297.282V37.6722H315.84V56.5083Z" fill="#ECD979"/>
<path d="M278.729 56.5081H260.172V37.6719H278.729V56.5081Z" fill="#ECD979"/>
<path d="M260.172 56.5081H241.614V37.6719H260.172V56.5081Z" fill="#ECD979"/>
<path d="M241.614 56.5081H223.057V37.6719H241.614V56.5081Z" fill="#ECD979"/>
<path d="M93.1539 56.5081H74.5964V37.6719H93.1539V56.5081Z" fill="#ECD979"/>
<path d="M74.5966 56.5081H56.0391V37.6719H74.5966V56.5081Z" fill="#ECD979"/>
<path d="M56.0389 56.5081H37.4814V37.6719H56.0389V56.5081Z" fill="#ECD979"/>
<path d="M594.202 37.672H575.645V18.8359H594.202V37.672Z" fill="#ECD979"/>
<path d="M519.972 37.672H501.415V18.8359H519.972V37.672Z" fill="#ECD979"/>
<path d="M501.414 37.672H482.857V18.8359H501.414V37.672Z" fill="#ECD979"/>
<path d="M482.857 37.672H464.3V18.8359H482.857V37.672Z" fill="#ECD979"/>
<path d="M352.954 37.672H334.397V18.8359H352.954V37.672Z" fill="#ECD979"/>
<path d="M334.397 37.672H315.839V18.8359H334.397V37.672Z" fill="#ECD979"/>
<path d="M260.172 37.672H241.614V18.8359H260.172V37.672Z" fill="#ECD979"/>
<path d="M241.614 37.672H223.057V18.8359H241.614V37.672Z" fill="#ECD979"/>
<path d="M111.712 37.672H93.1541V18.8359H111.712V37.672Z" fill="#ECD979"/>
<path d="M93.1539 37.672H74.5964V18.8359H93.1539V37.672Z" fill="#ECD979"/>
<path d="M74.5966 37.672H56.0391V18.8359H74.5966V37.672Z" fill="#ECD979"/>
<path d="M594.202 18.8358H575.645V-0.000301361H594.202V18.8358Z" fill="#ECD979"/>
<path d="M575.644 18.8358H557.087V-0.000301361H575.644V18.8358Z" fill="#ECD979"/>
<path d="M501.414 18.8358H482.857V-0.000301361H501.414V18.8358Z" fill="#ECD979"/>
<path d="M482.857 18.8358H464.3V-0.000301361H482.857V18.8358Z" fill="#ECD979"/>
<path d="M464.299 18.8358H445.742V-0.000301361H464.299V18.8358Z" fill="#ECD979"/>
<path d="M352.954 18.8358H334.397V-0.000301361H352.954V18.8358Z" fill="#ECD979"/>
<path d="M241.614 18.8358H223.057V-0.000301361H241.614V18.8358Z" fill="#ECD979"/>
<path d="M130.269 18.8358H111.711V-0.000301361H130.269V18.8358Z" fill="#ECD979"/>
<path d="M111.712 18.8358H93.1541V-0.000301361H111.712V18.8358Z" fill="#ECD979"/>
<path d="M93.1539 18.8358H74.5964V-0.000301361H93.1539V18.8358Z" fill="#ECD979"/>
<path d="M18.924 18.8358H0.366455V-0.000301361H18.924V18.8358Z" fill="#ECD979"/>
</g>
<defs>
<clipPath id="clip0_15174_50">
<rect width="595" height="528" fill="white"/>
</clipPath>
</defs>
</svg>
