<svg width="545" height="484" viewBox="0 0 545 484" fill="none" xmlns="http://www.w3.org/2000/svg">
<g clip-path="url(#clip0_15174_642)">
<path d="M544.269 483.46H527.271V466.194H544.269V483.46Z" fill="#FCF9F9" fill-opacity="0.1"/>
<path d="M527.271 483.46H510.273V466.194H527.271V483.46Z" fill="#FCF9F9" fill-opacity="0.1"/>
<path d="M459.279 483.46H442.281V466.194H459.279V483.46Z" fill="#FCF9F9" fill-opacity="0.1"/>
<path d="M442.281 483.46H425.283V466.194H442.281V483.46Z" fill="#FCF9F9" fill-opacity="0.1"/>
<path d="M425.283 483.46H408.285V466.194H425.283V483.46Z" fill="#FCF9F9" fill-opacity="0.1"/>
<path d="M323.294 483.46H306.296V466.194H323.294V483.46Z" fill="#FCF9F9" fill-opacity="0.1"/>
<path d="M221.31 483.46H204.312V466.194H221.31V483.46Z" fill="#FCF9F9" fill-opacity="0.1"/>
<path d="M119.322 483.46H102.324V466.194H119.322V483.46Z" fill="#FCF9F9" fill-opacity="0.1"/>
<path d="M102.324 483.46H85.3259V466.194H102.324V483.46Z" fill="#FCF9F9" fill-opacity="0.1"/>
<path d="M85.3259 483.46H68.3279V466.194H85.3259V483.46Z" fill="#FCF9F9" fill-opacity="0.1"/>
<path d="M17.3337 483.46H0.335693V466.194H17.3337V483.46Z" fill="#FCF9F9" fill-opacity="0.1"/>
<path d="M544.269 466.194H527.271V448.927H544.269V466.194Z" fill="#FCF9F9" fill-opacity="0.1"/>
<path d="M476.277 466.194H459.279V448.927H476.277V466.194Z" fill="#FCF9F9" fill-opacity="0.1"/>
<path d="M459.279 466.194H442.281V448.927H459.279V466.194Z" fill="#FCF9F9" fill-opacity="0.1"/>
<path d="M442.281 466.194H425.283V448.927H442.281V466.194Z" fill="#FCF9F9" fill-opacity="0.1"/>
<path d="M323.294 466.194H306.296V448.927H323.294V466.194Z" fill="#FCF9F9" fill-opacity="0.1"/>
<path d="M306.296 466.194H289.298V448.927H306.296V466.194Z" fill="#FCF9F9" fill-opacity="0.1"/>
<path d="M238.308 466.194H221.31V448.927H238.308V466.194Z" fill="#FCF9F9" fill-opacity="0.1"/>
<path d="M221.31 466.194H204.312V448.927H221.31V466.194Z" fill="#FCF9F9" fill-opacity="0.1"/>
<path d="M102.324 466.194H85.3259V448.927H102.324V466.194Z" fill="#FCF9F9" fill-opacity="0.1"/>
<path d="M85.3259 466.194H68.3279V448.927H85.3259V466.194Z" fill="#FCF9F9" fill-opacity="0.1"/>
<path d="M68.3279 466.194H51.3298V448.927H68.3279V466.194Z" fill="#FCF9F9" fill-opacity="0.1"/>
<path d="M493.275 448.927H476.277V431.661H493.275V448.927Z" fill="#FCF9F9" fill-opacity="0.1"/>
<path d="M476.277 448.927H459.279V431.661H476.277V448.927Z" fill="#FCF9F9" fill-opacity="0.1"/>
<path d="M459.279 448.927H442.281V431.661H459.279V448.927Z" fill="#FCF9F9" fill-opacity="0.1"/>
<path d="M323.294 448.927H306.296V431.661H323.294V448.927Z" fill="#FCF9F9" fill-opacity="0.1"/>
<path d="M306.296 448.927H289.298V431.661H306.296V448.927Z" fill="#FCF9F9" fill-opacity="0.1"/>
<path d="M289.298 448.927H272.3V431.661H289.298V448.927Z" fill="#FCF9F9" fill-opacity="0.1"/>
<path d="M255.306 448.927H238.308V431.661H255.306V448.927Z" fill="#FCF9F9" fill-opacity="0.1"/>
<path d="M238.308 448.927H221.31V431.661H238.308V448.927Z" fill="#FCF9F9" fill-opacity="0.1"/>
<path d="M221.31 448.927H204.312V431.661H221.31V448.927Z" fill="#FCF9F9" fill-opacity="0.1"/>
<path d="M85.3259 448.927H68.3279V431.661H85.3259V448.927Z" fill="#FCF9F9" fill-opacity="0.1"/>
<path d="M68.3279 448.927H51.3298V431.661H68.3279V448.927Z" fill="#FCF9F9" fill-opacity="0.1"/>
<path d="M51.3298 448.927H34.3318V431.661H51.3298V448.927Z" fill="#FCF9F9" fill-opacity="0.1"/>
<path d="M510.273 431.661H493.275V414.395H510.273V431.661Z" fill="#FCF9F9" fill-opacity="0.1"/>
<path d="M493.275 431.661H476.277V414.395H493.275V431.661Z" fill="#FCF9F9" fill-opacity="0.1"/>
<path d="M476.277 431.661H459.279V414.395H476.277V431.661Z" fill="#FCF9F9" fill-opacity="0.1"/>
<path d="M391.287 431.661H374.289V414.395H391.287V431.661Z" fill="#FCF9F9" fill-opacity="0.1"/>
<path d="M374.289 431.661H357.291V414.395H374.289V431.661Z" fill="#FCF9F9" fill-opacity="0.1"/>
<path d="M357.291 431.661H340.292V414.395H357.291V431.661Z" fill="#FCF9F9" fill-opacity="0.1"/>
<path d="M306.296 431.661H289.298V414.395H306.296V431.661Z" fill="#FCF9F9" fill-opacity="0.1"/>
<path d="M289.298 431.661H272.3V414.395H289.298V431.661Z" fill="#FCF9F9" fill-opacity="0.1"/>
<path d="M255.306 431.661H238.308V414.395H255.306V431.661Z" fill="#FCF9F9" fill-opacity="0.1"/>
<path d="M238.308 431.661H221.31V414.395H238.308V431.661Z" fill="#FCF9F9" fill-opacity="0.1"/>
<path d="M187.314 431.661H170.316V414.395H187.314V431.661Z" fill="#FCF9F9" fill-opacity="0.1"/>
<path d="M170.316 431.661H153.318V414.395H170.316V431.661Z" fill="#FCF9F9" fill-opacity="0.1"/>
<path d="M153.318 431.661H136.32V414.395H153.318V431.661Z" fill="#FCF9F9" fill-opacity="0.1"/>
<path d="M68.3279 431.661H51.3298V414.395H68.3279V431.661Z" fill="#FCF9F9" fill-opacity="0.1"/>
<path d="M51.3298 431.661H34.3318V414.395H51.3298V431.661Z" fill="#FCF9F9" fill-opacity="0.1"/>
<path d="M34.3318 431.661H17.3337V414.395H34.3318V431.661Z" fill="#FCF9F9" fill-opacity="0.1"/>
<path d="M527.271 414.395H510.273V397.128H527.271V414.395Z" fill="#FCF9F9" fill-opacity="0.1"/>
<path d="M510.273 414.395H493.275V397.128H510.273V414.395Z" fill="#FCF9F9" fill-opacity="0.1"/>
<path d="M493.275 414.395H476.277V397.128H493.275V414.395Z" fill="#FCF9F9" fill-opacity="0.1"/>
<path d="M374.289 414.395H357.291V397.128H374.289V414.395Z" fill="#FCF9F9" fill-opacity="0.1"/>
<path d="M357.291 414.395H340.292V397.128H357.291V414.395Z" fill="#FCF9F9" fill-opacity="0.1"/>
<path d="M340.292 414.395H323.294V397.128H340.292V414.395Z" fill="#FCF9F9" fill-opacity="0.1"/>
<path d="M289.298 414.395H272.3V397.128H289.298V414.395Z" fill="#FCF9F9" fill-opacity="0.1"/>
<path d="M255.306 414.395H238.308V397.128H255.306V414.395Z" fill="#FCF9F9" fill-opacity="0.1"/>
<path d="M204.312 414.395H187.314V397.128H204.312V414.395Z" fill="#FCF9F9" fill-opacity="0.1"/>
<path d="M187.314 414.395H170.316V397.128H187.314V414.395Z" fill="#FCF9F9" fill-opacity="0.1"/>
<path d="M170.316 414.395H153.318V397.128H170.316V414.395Z" fill="#FCF9F9" fill-opacity="0.1"/>
<path d="M51.3298 414.395H34.3318V397.128H51.3298V414.395Z" fill="#FCF9F9" fill-opacity="0.1"/>
<path d="M34.3318 414.395H17.3337V397.128H34.3318V414.395Z" fill="#FCF9F9" fill-opacity="0.1"/>
<path d="M17.3337 414.395H0.335693V397.128H17.3337V414.395Z" fill="#FCF9F9" fill-opacity="0.1"/>
<path d="M527.271 397.128H510.273V379.862H527.271V397.128Z" fill="#FCF9F9" fill-opacity="0.1"/>
<path d="M510.273 397.128H493.275V379.862H510.273V397.128Z" fill="#FCF9F9" fill-opacity="0.1"/>
<path d="M357.291 397.128H340.292V379.862H357.291V397.128Z" fill="#FCF9F9" fill-opacity="0.1"/>
<path d="M340.292 397.128H323.294V379.862H340.292V397.128Z" fill="#FCF9F9" fill-opacity="0.1"/>
<path d="M323.294 397.128H306.296V379.862H323.294V397.128Z" fill="#FCF9F9" fill-opacity="0.1"/>
<path d="M221.31 397.128H204.312V379.862H221.31V397.128Z" fill="#FCF9F9" fill-opacity="0.1"/>
<path d="M204.312 397.128H187.314V379.862H204.312V397.128Z" fill="#FCF9F9" fill-opacity="0.1"/>
<path d="M187.314 397.128H170.316V379.862H187.314V397.128Z" fill="#FCF9F9" fill-opacity="0.1"/>
<path d="M34.3318 397.128H17.3337V379.862H34.3318V397.128Z" fill="#FCF9F9" fill-opacity="0.1"/>
<path d="M17.3337 397.128H0.335693V379.862H17.3337V397.128Z" fill="#FCF9F9" fill-opacity="0.1"/>
<path d="M527.271 379.862H510.273V362.595H527.271V379.862Z" fill="#FCF9F9" fill-opacity="0.1"/>
<path d="M442.281 379.862H425.283V362.595H442.281V379.862Z" fill="#FCF9F9" fill-opacity="0.1"/>
<path d="M289.298 379.862H272.3V362.595H289.298V379.862Z" fill="#FCF9F9" fill-opacity="0.1"/>
<path d="M255.306 379.862H238.308V362.595H255.306V379.862Z" fill="#FCF9F9" fill-opacity="0.1"/>
<path d="M102.324 379.862H85.3259V362.595H102.324V379.862Z" fill="#FCF9F9" fill-opacity="0.1"/>
<path d="M17.3337 379.862H0.335693V362.595H17.3337V379.862Z" fill="#FCF9F9" fill-opacity="0.1"/>
<path d="M442.281 362.595H425.283V345.329H442.281V362.595Z" fill="#FCF9F9" fill-opacity="0.1"/>
<path d="M425.283 362.595H408.285V345.329H425.283V362.595Z" fill="#FCF9F9" fill-opacity="0.1"/>
<path d="M306.296 362.595H289.298V345.329H306.296V362.595Z" fill="#FCF9F9" fill-opacity="0.1"/>
<path d="M289.298 362.595H272.3V345.329H289.298V362.595Z" fill="#FCF9F9" fill-opacity="0.1"/>
<path d="M255.306 362.595H238.308V345.329H255.306V362.595Z" fill="#FCF9F9" fill-opacity="0.1"/>
<path d="M238.308 362.595H221.31V345.329H238.308V362.595Z" fill="#FCF9F9" fill-opacity="0.1"/>
<path d="M119.322 362.595H102.324V345.329H119.322V362.595Z" fill="#FCF9F9" fill-opacity="0.1"/>
<path d="M102.324 362.595H85.3259V345.329H102.324V362.595Z" fill="#FCF9F9" fill-opacity="0.1"/>
<path d="M442.281 345.329H425.283V328.062H442.281V345.329Z" fill="#FCF9F9" fill-opacity="0.1"/>
<path d="M425.283 345.329H408.285V328.062H425.283V345.329Z" fill="#FCF9F9" fill-opacity="0.1"/>
<path d="M408.285 345.329H391.287V328.062H408.285V345.329Z" fill="#FCF9F9" fill-opacity="0.1"/>
<path d="M323.294 345.329H306.296V328.062H323.294V345.329Z" fill="#FCF9F9" fill-opacity="0.1"/>
<path d="M306.296 345.329H289.298V328.062H306.296V345.329Z" fill="#FCF9F9" fill-opacity="0.1"/>
<path d="M238.308 345.329H221.31V328.062H238.308V345.329Z" fill="#FCF9F9" fill-opacity="0.1"/>
<path d="M221.31 345.329H204.312V328.062H221.31V345.329Z" fill="#FCF9F9" fill-opacity="0.1"/>
<path d="M136.32 345.329H119.322V328.062H136.32V345.329Z" fill="#FCF9F9" fill-opacity="0.1"/>
<path d="M119.322 345.329H102.324V328.062H119.322V345.329Z" fill="#FCF9F9" fill-opacity="0.1"/>
<path d="M102.324 345.329H85.3259V328.062H102.324V345.329Z" fill="#FCF9F9" fill-opacity="0.1"/>
<path d="M425.283 328.062H408.285V310.796H425.283V328.062Z" fill="#FCF9F9" fill-opacity="0.1"/>
<path d="M408.285 328.062H391.287V310.796H408.285V328.062Z" fill="#FCF9F9" fill-opacity="0.1"/>
<path d="M340.292 328.062H323.294V310.796H340.292V328.062Z" fill="#FCF9F9" fill-opacity="0.1"/>
<path d="M323.294 328.062H306.296V310.796H323.294V328.062Z" fill="#FCF9F9" fill-opacity="0.1"/>
<path d="M221.31 328.062H204.312V310.796H221.31V328.062Z" fill="#FCF9F9" fill-opacity="0.1"/>
<path d="M204.312 328.062H187.314V310.796H204.312V328.062Z" fill="#FCF9F9" fill-opacity="0.1"/>
<path d="M136.32 328.062H119.322V310.796H136.32V328.062Z" fill="#FCF9F9" fill-opacity="0.1"/>
<path d="M119.322 328.062H102.324V310.796H119.322V328.062Z" fill="#FCF9F9" fill-opacity="0.1"/>
<path d="M493.275 310.796H476.277V293.529H493.275V310.796Z" fill="#FCF9F9" fill-opacity="0.1"/>
<path d="M476.277 310.796H459.279V293.529H476.277V310.796Z" fill="#FCF9F9" fill-opacity="0.1"/>
<path d="M459.279 310.796H442.281V293.529H459.279V310.796Z" fill="#FCF9F9" fill-opacity="0.1"/>
<path d="M408.285 310.796H391.287V293.529H408.285V310.796Z" fill="#FCF9F9" fill-opacity="0.1"/>
<path d="M357.291 310.796H340.292V293.529H357.291V310.796Z" fill="#FCF9F9" fill-opacity="0.1"/>
<path d="M340.292 310.796H323.294V293.529H340.292V310.796Z" fill="#FCF9F9" fill-opacity="0.1"/>
<path d="M204.312 310.796H187.314V293.529H204.312V310.796Z" fill="#FCF9F9" fill-opacity="0.1"/>
<path d="M187.314 310.796H170.316V293.529H187.314V310.796Z" fill="#FCF9F9" fill-opacity="0.1"/>
<path d="M136.32 310.796H119.322V293.529H136.32V310.796Z" fill="#FCF9F9" fill-opacity="0.1"/>
<path d="M85.3259 310.796H68.3279V293.529H85.3259V310.796Z" fill="#FCF9F9" fill-opacity="0.1"/>
<path d="M68.3279 310.796H51.3298V293.529H68.3279V310.796Z" fill="#FCF9F9" fill-opacity="0.1"/>
<path d="M51.3298 310.796H34.3318V293.529H51.3298V310.796Z" fill="#FCF9F9" fill-opacity="0.1"/>
<path d="M544.269 293.53H527.271V276.263H544.269V293.53Z" fill="#FCF9F9" fill-opacity="0.1"/>
<path d="M476.277 293.53H459.279V276.263H476.277V293.53Z" fill="#FCF9F9" fill-opacity="0.1"/>
<path d="M459.279 293.53H442.281V276.263H459.279V293.53Z" fill="#FCF9F9" fill-opacity="0.1"/>
<path d="M442.281 293.53H425.283V276.263H442.281V293.53Z" fill="#FCF9F9" fill-opacity="0.1"/>
<path d="M374.289 293.53H357.291V276.263H374.289V293.53Z" fill="#FCF9F9" fill-opacity="0.1"/>
<path d="M357.291 293.53H340.292V276.263H357.291V293.53Z" fill="#FCF9F9" fill-opacity="0.1"/>
<path d="M187.314 293.53H170.316V276.263H187.314V293.53Z" fill="#FCF9F9" fill-opacity="0.1"/>
<path d="M170.316 293.53H153.318V276.263H170.316V293.53Z" fill="#FCF9F9" fill-opacity="0.1"/>
<path d="M102.324 293.53H85.3259V276.263H102.324V293.53Z" fill="#FCF9F9" fill-opacity="0.1"/>
<path d="M85.3259 293.53H68.3279V276.263H85.3259V293.53Z" fill="#FCF9F9" fill-opacity="0.1"/>
<path d="M68.3279 293.53H51.3298V276.263H68.3279V293.53Z" fill="#FCF9F9" fill-opacity="0.1"/>
<path d="M544.269 276.263H527.271V258.997H544.269V276.263Z" fill="#FCF9F9" fill-opacity="0.1"/>
<path d="M527.271 276.263H510.273V258.997H527.271V276.263Z" fill="#FCF9F9" fill-opacity="0.1"/>
<path d="M459.279 276.263H442.281V258.997H459.279V276.263Z" fill="#FCF9F9" fill-opacity="0.1"/>
<path d="M442.281 276.263H425.283V258.997H442.281V276.263Z" fill="#FCF9F9" fill-opacity="0.1"/>
<path d="M425.283 276.263H408.285V258.997H425.283V276.263Z" fill="#FCF9F9" fill-opacity="0.1"/>
<path d="M391.287 276.263H374.289V258.997H391.287V276.263Z" fill="#FCF9F9" fill-opacity="0.1"/>
<path d="M374.289 276.263H357.291V258.997H374.289V276.263Z" fill="#FCF9F9" fill-opacity="0.1"/>
<path d="M272.304 276.263H255.306V258.997H272.304V276.263Z" fill="#FCF9F9" fill-opacity="0.1"/>
<path d="M170.316 276.263H153.318V258.997H170.316V276.263Z" fill="#FCF9F9" fill-opacity="0.1"/>
<path d="M153.318 276.263H136.32V258.997H153.318V276.263Z" fill="#FCF9F9" fill-opacity="0.1"/>
<path d="M119.322 276.263H102.324V258.997H119.322V276.263Z" fill="#FCF9F9" fill-opacity="0.1"/>
<path d="M102.324 276.263H85.3259V258.997H102.324V276.263Z" fill="#FCF9F9" fill-opacity="0.1"/>
<path d="M85.3259 276.263H68.3279V258.997H85.3259V276.263Z" fill="#FCF9F9" fill-opacity="0.1"/>
<path d="M16.998 258.997H0V241.73H16.998V258.997Z" fill="#FCF9F9" fill-opacity="0.1"/>
<path d="M34.3318 258.997H17.3337V241.73H34.3318V258.997Z" fill="#FCF9F9" fill-opacity="0.1"/>
<path d="M16.998 276.263H0V258.997H16.998V276.263Z" fill="#FCF9F9" fill-opacity="0.1"/>
<path d="M16.998 241.73H0V224.464H16.998V241.73Z" fill="#FCF9F9" fill-opacity="0.1"/>
<path d="M544.269 258.997H527.271V241.73H544.269V258.997Z" fill="#FCF9F9" fill-opacity="0.1"/>
<path d="M527.271 258.997H510.273V241.73H527.271V258.997Z" fill="#FCF9F9" fill-opacity="0.1"/>
<path d="M510.273 258.997H493.275V241.73H510.273V258.997Z" fill="#FCF9F9" fill-opacity="0.1"/>
<path d="M289.298 258.997H272.3V241.73H289.298V258.997Z" fill="#FCF9F9" fill-opacity="0.1"/>
<path d="M272.304 258.997H255.306V241.73H272.304V258.997Z" fill="#FCF9F9" fill-opacity="0.1"/>
<path d="M255.306 258.997H238.308V241.73H255.306V258.997Z" fill="#FCF9F9" fill-opacity="0.1"/>
<path d="M544.269 241.73H527.271V224.464H544.269V241.73Z" fill="#FCF9F9" fill-opacity="0.1"/>
<path d="M527.271 241.73H510.273V224.464H527.271V241.73Z" fill="#FCF9F9" fill-opacity="0.1"/>
<path d="M459.279 241.73H442.281V224.464H459.279V241.73Z" fill="#FCF9F9" fill-opacity="0.1"/>
<path d="M442.281 241.73H425.283V224.464H442.281V241.73Z" fill="#FCF9F9" fill-opacity="0.1"/>
<path d="M425.283 241.73H408.285V224.464H425.283V241.73Z" fill="#FCF9F9" fill-opacity="0.1"/>
<path d="M391.287 241.73H374.289V224.464H391.287V241.73Z" fill="#FCF9F9" fill-opacity="0.1"/>
<path d="M374.289 241.73H357.291V224.464H374.289V241.73Z" fill="#FCF9F9" fill-opacity="0.1"/>
<path d="M272.304 241.73H255.306V224.464H272.304V241.73Z" fill="#FCF9F9" fill-opacity="0.1"/>
<path d="M170.316 241.73H153.318V224.464H170.316V241.73Z" fill="#FCF9F9" fill-opacity="0.1"/>
<path d="M153.318 241.73H136.32V224.464H153.318V241.73Z" fill="#FCF9F9" fill-opacity="0.1"/>
<path d="M119.322 241.73H102.324V224.464H119.322V241.73Z" fill="#FCF9F9" fill-opacity="0.1"/>
<path d="M102.324 241.73H85.3259V224.464H102.324V241.73Z" fill="#FCF9F9" fill-opacity="0.1"/>
<path d="M85.3259 241.73H68.3279V224.464H85.3259V241.73Z" fill="#FCF9F9" fill-opacity="0.1"/>
<path d="M544.269 224.464H527.271V207.197H544.269V224.464Z" fill="#FCF9F9" fill-opacity="0.1"/>
<path d="M476.277 224.464H459.279V207.197H476.277V224.464Z" fill="#FCF9F9" fill-opacity="0.1"/>
<path d="M459.279 224.464H442.281V207.197H459.279V224.464Z" fill="#FCF9F9" fill-opacity="0.1"/>
<path d="M442.281 224.464H425.283V207.197H442.281V224.464Z" fill="#FCF9F9" fill-opacity="0.1"/>
<path d="M374.289 224.464H357.291V207.197H374.289V224.464Z" fill="#FCF9F9" fill-opacity="0.1"/>
<path d="M357.291 224.464H340.292V207.197H357.291V224.464Z" fill="#FCF9F9" fill-opacity="0.1"/>
<path d="M187.314 224.464H170.316V207.197H187.314V224.464Z" fill="#FCF9F9" fill-opacity="0.1"/>
<path d="M170.316 224.464H153.318V207.197H170.316V224.464Z" fill="#FCF9F9" fill-opacity="0.1"/>
<path d="M102.324 224.464H85.3259V207.197H102.324V224.464Z" fill="#FCF9F9" fill-opacity="0.1"/>
<path d="M85.3259 224.464H68.3279V207.197H85.3259V224.464Z" fill="#FCF9F9" fill-opacity="0.1"/>
<path d="M68.3279 224.464H51.3298V207.197H68.3279V224.464Z" fill="#FCF9F9" fill-opacity="0.1"/>
<path d="M493.275 207.197H476.277V189.931H493.275V207.197Z" fill="#FCF9F9" fill-opacity="0.1"/>
<path d="M476.277 207.197H459.279V189.931H476.277V207.197Z" fill="#FCF9F9" fill-opacity="0.1"/>
<path d="M459.279 207.197H442.281V189.931H459.279V207.197Z" fill="#FCF9F9" fill-opacity="0.1"/>
<path d="M408.285 207.197H391.287V189.931H408.285V207.197Z" fill="#FCF9F9" fill-opacity="0.1"/>
<path d="M357.291 207.197H340.292V189.931H357.291V207.197Z" fill="#FCF9F9" fill-opacity="0.1"/>
<path d="M340.292 207.197H323.294V189.931H340.292V207.197Z" fill="#FCF9F9" fill-opacity="0.1"/>
<path d="M204.312 207.197H187.314V189.931H204.312V207.197Z" fill="#FCF9F9" fill-opacity="0.1"/>
<path d="M187.314 207.197H170.316V189.931H187.314V207.197Z" fill="#FCF9F9" fill-opacity="0.1"/>
<path d="M136.32 207.197H119.322V189.931H136.32V207.197Z" fill="#FCF9F9" fill-opacity="0.1"/>
<path d="M85.3259 207.197H68.3279V189.931H85.3259V207.197Z" fill="#FCF9F9" fill-opacity="0.1"/>
<path d="M68.3279 207.197H51.3298V189.931H68.3279V207.197Z" fill="#FCF9F9" fill-opacity="0.1"/>
<path d="M51.3298 207.197H34.3318V189.931H51.3298V207.197Z" fill="#FCF9F9" fill-opacity="0.1"/>
<path d="M425.283 189.931H408.285V172.664H425.283V189.931Z" fill="#FCF9F9" fill-opacity="0.1"/>
<path d="M408.285 189.931H391.287V172.664H408.285V189.931Z" fill="#FCF9F9" fill-opacity="0.1"/>
<path d="M340.292 189.931H323.294V172.664H340.292V189.931Z" fill="#FCF9F9" fill-opacity="0.1"/>
<path d="M323.294 189.931H306.296V172.664H323.294V189.931Z" fill="#FCF9F9" fill-opacity="0.1"/>
<path d="M221.31 189.931H204.312V172.664H221.31V189.931Z" fill="#FCF9F9" fill-opacity="0.1"/>
<path d="M204.312 189.931H187.314V172.664H204.312V189.931Z" fill="#FCF9F9" fill-opacity="0.1"/>
<path d="M136.32 189.931H119.322V172.664H136.32V189.931Z" fill="#FCF9F9" fill-opacity="0.1"/>
<path d="M119.322 189.931H102.324V172.664H119.322V189.931Z" fill="#FCF9F9" fill-opacity="0.1"/>
<path d="M442.281 172.664H425.283V155.398H442.281V172.664Z" fill="#FCF9F9" fill-opacity="0.1"/>
<path d="M425.283 172.664H408.285V155.398H425.283V172.664Z" fill="#FCF9F9" fill-opacity="0.1"/>
<path d="M408.285 172.664H391.287V155.398H408.285V172.664Z" fill="#FCF9F9" fill-opacity="0.1"/>
<path d="M323.294 172.664H306.296V155.398H323.294V172.664Z" fill="#FCF9F9" fill-opacity="0.1"/>
<path d="M306.296 172.664H289.298V155.398H306.296V172.664Z" fill="#FCF9F9" fill-opacity="0.1"/>
<path d="M238.308 172.664H221.31V155.398H238.308V172.664Z" fill="#FCF9F9" fill-opacity="0.1"/>
<path d="M221.31 172.664H204.312V155.398H221.31V172.664Z" fill="#FCF9F9" fill-opacity="0.1"/>
<path d="M136.32 172.664H119.322V155.398H136.32V172.664Z" fill="#FCF9F9" fill-opacity="0.1"/>
<path d="M119.322 172.664H102.324V155.398H119.322V172.664Z" fill="#FCF9F9" fill-opacity="0.1"/>
<path d="M102.324 172.664H85.3259V155.398H102.324V172.664Z" fill="#FCF9F9" fill-opacity="0.1"/>
<path d="M442.281 155.398H425.283V138.132H442.281V155.398Z" fill="#FCF9F9" fill-opacity="0.1"/>
<path d="M425.283 155.398H408.285V138.132H425.283V155.398Z" fill="#FCF9F9" fill-opacity="0.1"/>
<path d="M306.296 155.398H289.298V138.132H306.296V155.398Z" fill="#FCF9F9" fill-opacity="0.1"/>
<path d="M289.298 155.398H272.3V138.132H289.298V155.398Z" fill="#FCF9F9" fill-opacity="0.1"/>
<path d="M255.306 155.398H238.308V138.132H255.306V155.398Z" fill="#FCF9F9" fill-opacity="0.1"/>
<path d="M238.308 155.398H221.31V138.132H238.308V155.398Z" fill="#FCF9F9" fill-opacity="0.1"/>
<path d="M119.322 155.398H102.324V138.132H119.322V155.398Z" fill="#FCF9F9" fill-opacity="0.1"/>
<path d="M102.324 155.398H85.3259V138.132H102.324V155.398Z" fill="#FCF9F9" fill-opacity="0.1"/>
<path d="M442.281 138.132H425.283V120.865H442.281V138.132Z" fill="#FCF9F9" fill-opacity="0.1"/>
<path d="M289.298 138.132H272.3V120.865H289.298V138.132Z" fill="#FCF9F9" fill-opacity="0.1"/>
<path d="M255.306 138.132H238.308V120.865H255.306V138.132Z" fill="#FCF9F9" fill-opacity="0.1"/>
<path d="M102.324 138.132H85.3259V120.865H102.324V138.132Z" fill="#FCF9F9" fill-opacity="0.1"/>
<path d="M527.271 120.865H510.273V103.599H527.271V120.865Z" fill="#FCF9F9" fill-opacity="0.1"/>
<path d="M17.3337 120.865H0.335693V103.599H17.3337V120.865Z" fill="#FCF9F9" fill-opacity="0.1"/>
<path d="M527.271 103.599H510.273V86.3322H527.271V103.599Z" fill="#FCF9F9" fill-opacity="0.1"/>
<path d="M510.273 103.599H493.275V86.3322H510.273V103.599Z" fill="#FCF9F9" fill-opacity="0.1"/>
<path d="M357.291 103.599H340.292V86.3322H357.291V103.599Z" fill="#FCF9F9" fill-opacity="0.1"/>
<path d="M340.292 103.599H323.294V86.3322H340.292V103.599Z" fill="#FCF9F9" fill-opacity="0.1"/>
<path d="M323.294 103.599H306.296V86.3322H323.294V103.599Z" fill="#FCF9F9" fill-opacity="0.1"/>
<path d="M221.31 103.599H204.312V86.3322H221.31V103.599Z" fill="#FCF9F9" fill-opacity="0.1"/>
<path d="M204.312 103.599H187.314V86.3322H204.312V103.599Z" fill="#FCF9F9" fill-opacity="0.1"/>
<path d="M187.314 103.599H170.316V86.3322H187.314V103.599Z" fill="#FCF9F9" fill-opacity="0.1"/>
<path d="M34.3318 103.599H17.3337V86.3322H34.3318V103.599Z" fill="#FCF9F9" fill-opacity="0.1"/>
<path d="M17.3337 103.599H0.335693V86.3322H17.3337V103.599Z" fill="#FCF9F9" fill-opacity="0.1"/>
<path d="M527.271 86.3322H510.273V69.0657H527.271V86.3322Z" fill="#FCF9F9" fill-opacity="0.1"/>
<path d="M510.273 86.3322H493.275V69.0657H510.273V86.3322Z" fill="#FCF9F9" fill-opacity="0.1"/>
<path d="M493.275 86.3322H476.277V69.0657H493.275V86.3322Z" fill="#FCF9F9" fill-opacity="0.1"/>
<path d="M374.289 86.3322H357.291V69.0657H374.289V86.3322Z" fill="#FCF9F9" fill-opacity="0.1"/>
<path d="M357.291 86.3322H340.292V69.0657H357.291V86.3322Z" fill="#FCF9F9" fill-opacity="0.1"/>
<path d="M340.292 86.3322H323.294V69.0657H340.292V86.3322Z" fill="#FCF9F9" fill-opacity="0.1"/>
<path d="M289.298 86.3322H272.3V69.0657H289.298V86.3322Z" fill="#FCF9F9" fill-opacity="0.1"/>
<path d="M255.306 86.3322H238.308V69.0657H255.306V86.3322Z" fill="#FCF9F9" fill-opacity="0.1"/>
<path d="M204.312 86.3322H187.314V69.0657H204.312V86.3322Z" fill="#FCF9F9" fill-opacity="0.1"/>
<path d="M187.314 86.3322H170.316V69.0657H187.314V86.3322Z" fill="#FCF9F9" fill-opacity="0.1"/>
<path d="M170.316 86.3322H153.318V69.0657H170.316V86.3322Z" fill="#FCF9F9" fill-opacity="0.1"/>
<path d="M51.3298 86.3322H34.3318V69.0657H51.3298V86.3322Z" fill="#FCF9F9" fill-opacity="0.1"/>
<path d="M34.3318 86.3322H17.3337V69.0657H34.3318V86.3322Z" fill="#FCF9F9" fill-opacity="0.1"/>
<path d="M17.3337 86.3322H0.335693V69.0657H17.3337V86.3322Z" fill="#FCF9F9" fill-opacity="0.1"/>
<path d="M510.273 69.0657H493.275V51.7992H510.273V69.0657Z" fill="#FCF9F9" fill-opacity="0.1"/>
<path d="M493.275 69.0657H476.277V51.7992H493.275V69.0657Z" fill="#FCF9F9" fill-opacity="0.1"/>
<path d="M476.277 69.0657H459.279V51.7992H476.277V69.0657Z" fill="#FCF9F9" fill-opacity="0.1"/>
<path d="M391.287 69.0657H374.289V51.7992H391.287V69.0657Z" fill="#FCF9F9" fill-opacity="0.1"/>
<path d="M374.289 69.0657H357.291V51.7992H374.289V69.0657Z" fill="#FCF9F9" fill-opacity="0.1"/>
<path d="M357.291 69.0657H340.292V51.7992H357.291V69.0657Z" fill="#FCF9F9" fill-opacity="0.1"/>
<path d="M306.296 69.0657H289.298V51.7992H306.296V69.0657Z" fill="#FCF9F9" fill-opacity="0.1"/>
<path d="M289.298 69.0657H272.3V51.7992H289.298V69.0657Z" fill="#FCF9F9" fill-opacity="0.1"/>
<path d="M255.306 69.0657H238.308V51.7992H255.306V69.0657Z" fill="#FCF9F9" fill-opacity="0.1"/>
<path d="M238.308 69.0657H221.31V51.7992H238.308V69.0657Z" fill="#FCF9F9" fill-opacity="0.1"/>
<path d="M187.314 69.0657H170.316V51.7992H187.314V69.0657Z" fill="#FCF9F9" fill-opacity="0.1"/>
<path d="M170.316 69.0657H153.318V51.7992H170.316V69.0657Z" fill="#FCF9F9" fill-opacity="0.1"/>
<path d="M153.318 69.0657H136.32V51.7992H153.318V69.0657Z" fill="#FCF9F9" fill-opacity="0.1"/>
<path d="M68.3279 69.0657H51.3298V51.7992H68.3279V69.0657Z" fill="#FCF9F9" fill-opacity="0.1"/>
<path d="M51.3298 69.0657H34.3318V51.7992H51.3298V69.0657Z" fill="#FCF9F9" fill-opacity="0.1"/>
<path d="M34.3318 69.0657H17.3337V51.7992H34.3318V69.0657Z" fill="#FCF9F9" fill-opacity="0.1"/>
<path d="M493.275 51.7992H476.277V34.5328H493.275V51.7992Z" fill="#FCF9F9" fill-opacity="0.1"/>
<path d="M476.277 51.7992H459.279V34.5328H476.277V51.7992Z" fill="#FCF9F9" fill-opacity="0.1"/>
<path d="M459.279 51.7992H442.281V34.5328H459.279V51.7992Z" fill="#FCF9F9" fill-opacity="0.1"/>
<path d="M323.294 51.7992H306.296V34.5328H323.294V51.7992Z" fill="#FCF9F9" fill-opacity="0.1"/>
<path d="M306.296 51.7992H289.298V34.5328H306.296V51.7992Z" fill="#FCF9F9" fill-opacity="0.1"/>
<path d="M289.298 51.7992H272.3V34.5328H289.298V51.7992Z" fill="#FCF9F9" fill-opacity="0.1"/>
<path d="M255.306 51.7992H238.308V34.5328H255.306V51.7992Z" fill="#FCF9F9" fill-opacity="0.1"/>
<path d="M238.308 51.7992H221.31V34.5328H238.308V51.7992Z" fill="#FCF9F9" fill-opacity="0.1"/>
<path d="M221.31 51.7992H204.312V34.5328H221.31V51.7992Z" fill="#FCF9F9" fill-opacity="0.1"/>
<path d="M85.3259 51.7992H68.3279V34.5328H85.3259V51.7992Z" fill="#FCF9F9" fill-opacity="0.1"/>
<path d="M68.3279 51.7992H51.3298V34.5328H68.3279V51.7992Z" fill="#FCF9F9" fill-opacity="0.1"/>
<path d="M51.3298 51.7992H34.3318V34.5328H51.3298V51.7992Z" fill="#FCF9F9" fill-opacity="0.1"/>
<path d="M544.269 34.5328H527.271V17.2664H544.269V34.5328Z" fill="#FCF9F9" fill-opacity="0.1"/>
<path d="M476.277 34.5328H459.279V17.2664H476.277V34.5328Z" fill="#FCF9F9" fill-opacity="0.1"/>
<path d="M459.279 34.5328H442.281V17.2664H459.279V34.5328Z" fill="#FCF9F9" fill-opacity="0.1"/>
<path d="M442.281 34.5328H425.283V17.2664H442.281V34.5328Z" fill="#FCF9F9" fill-opacity="0.1"/>
<path d="M323.294 34.5328H306.296V17.2664H323.294V34.5328Z" fill="#FCF9F9" fill-opacity="0.1"/>
<path d="M306.296 34.5328H289.298V17.2664H306.296V34.5328Z" fill="#FCF9F9" fill-opacity="0.1"/>
<path d="M238.308 34.5328H221.31V17.2664H238.308V34.5328Z" fill="#FCF9F9" fill-opacity="0.1"/>
<path d="M221.31 34.5328H204.312V17.2664H221.31V34.5328Z" fill="#FCF9F9" fill-opacity="0.1"/>
<path d="M102.324 34.5328H85.3259V17.2664H102.324V34.5328Z" fill="#FCF9F9" fill-opacity="0.1"/>
<path d="M85.3259 34.5328H68.3279V17.2664H85.3259V34.5328Z" fill="#FCF9F9" fill-opacity="0.1"/>
<path d="M68.3279 34.5328H51.3298V17.2664H68.3279V34.5328Z" fill="#FCF9F9" fill-opacity="0.1"/>
<path d="M544.269 17.2664H527.271V-8.39233e-05H544.269V17.2664Z" fill="#FCF9F9" fill-opacity="0.1"/>
<path d="M527.271 17.2664H510.273V-8.39233e-05H527.271V17.2664Z" fill="#FCF9F9" fill-opacity="0.1"/>
<path d="M459.279 17.2664H442.281V-8.39233e-05H459.279V17.2664Z" fill="#FCF9F9" fill-opacity="0.1"/>
<path d="M442.281 17.2664H425.283V-8.39233e-05H442.281V17.2664Z" fill="#FCF9F9" fill-opacity="0.1"/>
<path d="M425.283 17.2664H408.285V-8.39233e-05H425.283V17.2664Z" fill="#FCF9F9" fill-opacity="0.1"/>
<path d="M323.294 17.2664H306.296V-8.39233e-05H323.294V17.2664Z" fill="#FCF9F9" fill-opacity="0.1"/>
<path d="M221.31 17.2664H204.312V-8.39233e-05H221.31V17.2664Z" fill="#FCF9F9" fill-opacity="0.1"/>
<path d="M119.322 17.2664H102.324V-8.39233e-05H119.322V17.2664Z" fill="#FCF9F9" fill-opacity="0.1"/>
<path d="M102.324 17.2664H85.3259V-8.39233e-05H102.324V17.2664Z" fill="#FCF9F9" fill-opacity="0.1"/>
<path d="M85.3259 17.2664H68.3279V-8.39233e-05H85.3259V17.2664Z" fill="#FCF9F9" fill-opacity="0.1"/>
<path d="M17.3337 17.2664H0.335693V-8.39233e-05H17.3337V17.2664Z" fill="#FCF9F9" fill-opacity="0.1"/>
</g>
<defs>
<clipPath id="clip0_15174_642">
<rect width="545" height="484" fill="white"/>
</clipPath>
</defs>
</svg>
